<?xml version="1.0" encoding="utf-8"?>
<!-- Generator: Adobe Illustrator 28.0.0, SVG Export Plug-In . SVG Version: 6.00 Build 0)  -->
<svg version="1.1" id="Capa_1" xmlns="http://www.w3.org/2000/svg" xmlns:xlink="http://www.w3.org/1999/xlink" x="0px" y="0px"
	 viewBox="0 0 561.26 561.26" style="enable-background:new 0 0 561.26 561.26;" xml:space="preserve">
<style type="text/css">
	.st0{fill:#93CDB6;}
</style>
<g>
	<g>
		<g>
			<g>
				<path class="st0" d="M254.44,419.9c-3.24,0-5.86-2.62-5.86-5.86c0-63.45,51.62-115.07,115.07-115.07c3.24,0,5.86,2.62,5.86,5.86
					C369.51,368.28,317.89,419.9,254.44,419.9z M357.62,310.87c-52.19,3.02-94.11,44.95-97.13,97.13
					C312.67,404.98,354.59,363.05,357.62,310.87z"/>
			</g>
			<g>
				<path class="st0" d="M254.44,353.96c-1.5,0-3-0.57-4.15-1.72c-41.69-41.69-41.69-109.52,0-151.21c2.2-2.19,6.09-2.19,8.29,0
					c41.69,41.69,41.69,109.52,0,151.21C257.45,353.39,255.94,353.96,254.44,353.96z M254.44,213.74
					c-31.59,35.84-31.59,89.96,0,125.8C286.03,303.7,286.03,249.58,254.44,213.74z"/>
			</g>
			<g>
				<path class="st0" d="M254.44,419.9c-63.45,0-115.07-51.62-115.07-115.07c0-3.24,2.62-5.86,5.86-5.86
					c63.45,0,115.07,51.62,115.07,115.07C260.31,417.27,257.68,419.9,254.44,419.9z M151.27,310.87
					c3.02,52.19,44.95,94.11,97.14,97.13C245.39,355.81,203.46,313.89,151.27,310.87z"/>
			</g>
		</g>
		<g>
			<path class="st0" d="M254.44,453.94c-3.24,0-5.86-2.62-5.86-5.86V348.1c0-3.24,2.62-5.86,5.86-5.86s5.86,2.62,5.86,5.86v99.97
				C260.31,451.31,257.68,453.94,254.44,453.94z"/>
		</g>
	</g>
	<g>
		<g>
			<g>
				<g>
					<path class="st0" d="M254.45,471.46c-47.74,0-93.41-17.73-128.61-49.92c-34.98-31.99-56.69-75.49-61.13-122.49
						c-0.29-3.08,1.97-5.81,5.05-6.1c3.02-0.29,5.81,1.97,6.1,5.05c8.76,92.5,85.53,162.26,178.59,162.26
						c84.18,0,156.09-57.22,174.85-139.16c0.69-3.02,3.68-4.9,6.71-4.21c3.01,0.69,4.9,3.69,4.21,6.71
						c-9.48,41.36-32.98,78.9-66.19,105.69C340.32,456.49,297.86,471.46,254.45,471.46z"/>
				</g>
			</g>
			<g>
				<g>
					<g>
						<polygon class="st0" points="450,330.03 438.6,298.53 417.01,324.15 						"/>
					</g>
				</g>
			</g>
		</g>
		<g>
			<g>
				<g>
					<path class="st0" d="M438.6,268.77c-2.86,0-5.29-2.17-5.57-5.07c-8.76-92.5-85.53-162.26-178.57-162.26
						c-84.19,0-156.1,57.22-174.87,139.16c-0.69,3.02-3.69,4.89-6.71,4.21c-3.01-0.69-4.9-3.69-4.21-6.71
						c9.48-41.36,32.99-78.89,66.21-105.69c33.71-27.19,76.18-42.17,119.58-42.17c47.74,0,93.41,17.73,128.6,49.92
						c34.97,31.99,56.68,75.49,61.12,122.48c0.29,3.08-1.97,5.81-5.05,6.1C438.95,268.77,438.77,268.77,438.6,268.77z"/>
				</g>
			</g>
			<g>
				<g>
					<g>
						<polygon class="st0" points="91.88,237.55 70.29,263.17 58.89,231.67 						"/>
					</g>
				</g>
			</g>
		</g>
	</g>
	<g>
		<g>
			<path class="st0" d="M148.77,257.34l-48.75-15.87l7.13-21.9l7.35,2.39l-3.63,11.15l12.06,3.92l2.76-8.5l7.5,2.44l-2.77,8.5
				l14.56,4.74l3.66-11.26l7.29,2.37L148.77,257.34z"/>
		</g>
		<g>
			<path class="st0" d="M164.46,222.9c-1.54,2.42-3.19,4.26-4.94,5.54c-1.76,1.28-3.6,1.99-5.53,2.14c-1.93,0.15-3.89-0.1-5.86-0.75
				c-1.98-0.65-4.12-1.71-6.41-3.17l-15.41-9.82c-2.35-1.49-4.25-3.01-5.7-4.55c-1.45-1.53-2.51-3.21-3.18-5.02
				c-0.67-1.81-0.79-3.77-0.36-5.88c0.43-2.11,1.42-4.38,2.97-6.82c1.48-2.33,3.05-4.13,4.68-5.39c1.64-1.27,3.33-2,5.07-2.2
				s3.47-0.04,5.19,0.48c1.72,0.52,3.55,1.4,5.48,2.63l3.81,2.43l-5.95,9.34l-4.35-2.78c-0.68-0.43-1.2-0.75-1.56-0.95
				c-0.36-0.2-0.84-0.43-1.46-0.67c-0.61-0.24-1.12-0.35-1.53-0.33c-0.4,0.02-0.85,0.17-1.33,0.45c-0.48,0.28-0.91,0.71-1.29,1.31
				c-0.38,0.59-0.59,1.16-0.64,1.72c-0.05,0.56,0.01,1.04,0.18,1.45c0.17,0.41,0.47,0.85,0.92,1.32c0.45,0.47,0.88,0.85,1.3,1.16
				c0.42,0.3,0.95,0.66,1.59,1.07l20.16,12.84c1.74,1.11,3.21,1.73,4.41,1.86c1.2,0.13,2.2-0.44,3.01-1.71
				c0.36-0.57,0.57-1.13,0.61-1.68s-0.02-1.02-0.18-1.42s-0.48-0.82-0.94-1.28c-0.47-0.45-0.89-0.82-1.28-1.09
				c-0.39-0.27-0.91-0.62-1.57-1.04l-4.54-2.89l5.95-9.34l3.73,2.38c1.55,0.98,2.87,2,3.97,3.04c1.1,1.04,2.01,2.2,2.74,3.49
				c0.73,1.29,1.18,2.63,1.33,4.04c0.16,1.41-0.02,2.97-0.51,4.68C166.51,219.21,165.66,221.01,164.46,222.9z"/>
		</g>
		<g>
			<path class="st0" d="M183.82,200.45c-2.14,1.88-4.21,3.2-6.22,3.96c-2.01,0.76-3.95,0.97-5.82,0.63
				c-1.88-0.34-3.68-1.1-5.41-2.27c-1.73-1.17-3.5-2.79-5.31-4.84l-12.49-14.22c-1.82-2.07-3.2-4.04-4.13-5.9
				c-0.93-1.86-1.44-3.73-1.53-5.63c-0.09-1.9,0.38-3.79,1.4-5.67c1.02-1.88,2.6-3.76,4.73-5.64c4.17-3.66,8.09-5.22,11.76-4.67
				c3.68,0.54,7.35,2.91,11.02,7.09l12.49,14.22c3.67,4.18,5.55,8.14,5.63,11.87C190.03,193.09,187.99,196.79,183.82,200.45z
				 M176.98,195.31c0.53-0.13,1.05-0.42,1.56-0.87c0.51-0.45,0.87-0.92,1.09-1.43s0.3-0.98,0.27-1.43
				c-0.04-0.45-0.19-0.94-0.45-1.48c-0.26-0.53-0.55-1.01-0.85-1.41c-0.3-0.4-0.68-0.87-1.15-1.4l-16.23-18.47
				c-0.45-0.51-0.85-0.94-1.22-1.3c-0.37-0.35-0.79-0.69-1.28-1.01c-0.49-0.32-0.95-0.53-1.38-0.62c-0.43-0.09-0.91-0.06-1.44,0.09
				c-0.53,0.15-1.05,0.45-1.56,0.9c-0.51,0.45-0.87,0.92-1.08,1.42c-0.21,0.5-0.3,0.96-0.28,1.4s0.18,0.92,0.45,1.45
				c0.28,0.53,0.56,0.99,0.85,1.37c0.29,0.38,0.67,0.84,1.15,1.38l16.23,18.47c0.48,0.54,0.89,0.98,1.23,1.33
				c0.34,0.34,0.76,0.69,1.26,1.03c0.5,0.35,0.96,0.56,1.39,0.65C175.97,195.47,176.45,195.44,176.98,195.31z"/>
		</g>
		<g>
			<path class="st0" d="M209.41,182.53l-17.33-48.25l19.82-7.12l2.18,6.08l-11.03,3.96l5.04,14.03l8.82-3.17l2.23,6.2l-8.82,3.17
				l7.88,21.94L209.41,182.53z"/>
		</g>
		<g>
			<path class="st0" d="M229.57,175.11l-5.26-51l11.69-1.21c2.69-0.28,5.02-0.29,6.99-0.05c1.97,0.24,3.73,0.81,5.26,1.7
				c1.53,0.89,2.74,2.18,3.63,3.89c0.89,1.7,1.47,3.83,1.73,6.4c0.33,3.2,0.12,5.86-0.62,7.99c-0.74,2.13-2.16,3.77-4.26,4.91
				l9.67,24.4l-9.32,0.96l-8.49-22.66l-4.12,0.43l2.4,23.28L229.57,175.11z M235.85,144.94l2.25-0.23c2.75-0.28,4.64-1.07,5.68-2.36
				c1.04-1.29,1.41-3.35,1.12-6.18c-0.28-2.73-0.99-4.63-2.11-5.7c-1.13-1.07-3.03-1.47-5.72-1.2l-2.8,0.29L235.85,144.94z"/>
		</g>
		<g>
			<path class="st0" d="M261.19,173.24l5.3-50.99l9.17,0.95l-5.3,50.99L261.19,173.24z"/>
		</g>
		<g>
			<path class="st0" d="M275.31,174.7l14.31-49.23l20.61,5.99l-1.84,6.32l-11.64-3.38l-4.11,14.13l9.2,2.67l-1.84,6.33l-9.2-2.68
				l-4.72,16.24l11.79,3.43l-1.81,6.21L275.31,174.7z"/>
		</g>
		<g>
			<path class="st0" d="M296.88,180.91l25.74-44.34l5.56,3.23l-3.72,31.41l14.58-25.11l6.69,3.88l-25.74,44.34l-5.3-3.07l4.36-32.76
				l-15.32,26.39L296.88,180.91z"/>
		</g>
		<g>
			<path class="st0" d="M321.97,195.81l36.68-35.82l8.34,8.54c2.16,2.21,3.75,4.28,4.76,6.2c1.01,1.92,1.48,3.8,1.4,5.64
				c-0.08,1.84-0.63,3.62-1.66,5.36c-1.02,1.74-2.56,3.6-4.59,5.59l-13.23,12.92c-2.09,2.04-4.06,3.59-5.89,4.63
				c-1.84,1.04-3.69,1.62-5.57,1.74c-1.87,0.12-3.76-0.32-5.67-1.31c-1.91-0.99-3.9-2.55-5.97-4.68L321.97,195.81z M333.18,197.91
				l1.86,1.9c0.65,0.66,1.28,1.19,1.88,1.57c0.61,0.39,1.16,0.67,1.65,0.85c0.49,0.18,1.04,0.2,1.63,0.07
				c0.59-0.13,1.1-0.29,1.52-0.47c0.42-0.18,0.98-0.55,1.67-1.1c0.68-0.55,1.25-1.04,1.71-1.46s1.12-1.05,1.99-1.9l13.41-13.09
				c0.87-0.85,1.55-1.55,2.06-2.1c0.5-0.55,0.97-1.14,1.4-1.78c0.43-0.64,0.69-1.21,0.78-1.71c0.09-0.5,0.08-1.05-0.03-1.64
				c-0.1-0.59-0.36-1.2-0.79-1.83c-0.42-0.62-1-1.31-1.74-2.06l-1.79-1.84L333.18,197.91z"/>
		</g>
		<g>
			<path class="st0" d="M342.59,218.19l44.19-25.99l4.73,8.05l-38.62,22.72l6.22,10.58l-5.57,3.27L342.59,218.19z"/>
		</g>
		<g>
			<path class="st0" d="M355.36,242.79l18.52-6.13l26.87-19.89l2.74,8.28l-17.38,12.42l21.28-0.65l2.71,8.19l-33.41,0.11
				l-18.53,6.13L355.36,242.79z"/>
		</g>
	</g>
</g>
</svg>
